<?xml version="1.0" encoding="UTF-8" standalone="no"?><!DOCTYPE svg PUBLIC "-//W3C//DTD SVG 1.1//EN" "http://www.w3.org/Graphics/SVG/1.1/DTD/svg11.dtd"><svg width="100%" height="100%" viewBox="0 0 60 60" version="1.1" xmlns="http://www.w3.org/2000/svg" xmlns:xlink="http://www.w3.org/1999/xlink" xml:space="preserve" xmlns:serif="http://www.serif.com/" style="fill-rule:evenodd;clip-rule:evenodd;stroke-linejoin:round;stroke-miterlimit:1.41421;"><g><path d="M45,25l-25,0c-0.552,0 -1,0.447 -1,1c0,0.553 0.448,1 1,1l25,0c0.552,0 1,-0.447 1,-1c0,-0.553 -0.448,-1 -1,-1Z" style="fill:#fff;fill-rule:nonzero;"/><path d="M20,19l10,0c0.552,0 1,-0.447 1,-1c0,-0.553 -0.448,-1 -1,-1l-10,0c-0.552,0 -1,0.447 -1,1c0,0.553 0.448,1 1,1Z" style="fill:#fff;fill-rule:nonzero;"/><path d="M45,33l-25,0c-0.552,0 -1,0.447 -1,1c0,0.553 0.448,1 1,1l25,0c0.552,0 1,-0.447 1,-1c0,-0.553 -0.448,-1 -1,-1Z" style="fill:#fff;fill-rule:nonzero;"/><path d="M45,41l-25,0c-0.552,0 -1,0.447 -1,1c0,0.553 0.448,1 1,1l25,0c0.552,0 1,-0.447 1,-1c0,-0.553 -0.448,-1 -1,-1Z" style="fill:#fff;fill-rule:nonzero;"/><path d="M45,49l-25,0c-0.552,0 -1,0.447 -1,1c0,0.553 0.448,1 1,1l25,0c0.552,0 1,-0.447 1,-1c0,-0.553 -0.448,-1 -1,-1Z" style="fill:#fff;fill-rule:nonzero;"/><path d="M49,14.586l0,-14.586l-43,0l0,55l5,0l0,5l43,0l0,-40.414l-5,-5Zm-9,-6.172l10.586,10.586l-10.586,0l0,-10.586Zm-32,44.586l0,-51l39,0l0,10.586l-7.586,-7.586l-28.414,0l0,48l-3,0Zm5,5l0,-3l0,-48l25,0l0,14l14,0l0,37l-39,0Z" style="fill:#fff;fill-rule:nonzero;"/></g></svg>